<svg id="Layer_1" data-name="Layer 1" xmlns="http://www.w3.org/2000/svg" viewBox="0 0 1080 1080"><defs><style>.cls-1{fill:#cdd2d9;}</style></defs><path class="cls-1" d="M940.94,530C913,726.47,744.14,877.5,540,877.5c-224.33,0-405-184.74-405-409.08V135A67.5,67.5,0,0,0,67.5,67.5h0A67.5,67.5,0,0,0,0,135V467.64c0,297.68,243.54,545.51,541.21,544.86,271.73-.6,496.32-201.89,533.42-463.52,5.73-40.44-26.08-76.48-66.93-76.48h0C974.27,472.5,945.65,496.94,940.94,530Z"/><path class="cls-1" d="M540,270H270a67.5,67.5,0,0,0,0,135H540a67.5,67.5,0,0,0,0-135Z"/><path class="cls-1" d="M1012.5,270h-270a67.5,67.5,0,0,0,0,135h270a67.5,67.5,0,0,0,0-135Z"/></svg>