<svg id="Layer_1" data-name="Layer 1" xmlns="http://www.w3.org/2000/svg" viewBox="0 0 1080 1080"><defs><style>.cls-1{fill:#cdd2d9;}</style></defs><path class="cls-1" d="M405,67.5c111.84,0,202.5,90.66,202.5,202.5h0v67.5A67.5,67.5,0,0,1,540,405h0a67.5,67.5,0,0,1-67.5-67.5V270h0A67.5,67.5,0,0,0,405,202.5h0A67.5,67.5,0,0,0,337.5,270h0v67.5A67.5,67.5,0,0,1,270,405h0a67.5,67.5,0,0,1-67.5-67.5V270h0c0-111.84,90.66-202.5,202.5-202.5Zm472.5,0C765.66,67.5,675,158.16,675,270h0v67.5A67.5,67.5,0,0,0,742.5,405h0A67.5,67.5,0,0,0,810,337.5V270h0a67.5,67.5,0,0,1,67.5-67.5h0A67.5,67.5,0,0,1,945,270h0v67.5a67.5,67.5,0,0,0,67.5,67.5h0a67.5,67.5,0,0,0,67.5-67.5V270h0c0-111.84-90.66-202.5-202.5-202.5ZM940.94,530C913,726.47,744.14,877.5,540,877.5c-224.33,0-405-184.74-405-409.08V135A67.5,67.5,0,0,0,67.5,67.5h0A67.5,67.5,0,0,0,0,135V467.64c0,297.68,243.54,545.51,541.21,544.86,271.73-.6,496.32-201.89,533.42-463.52,5.73-40.44-26.08-76.48-66.93-76.48h0C974.27,472.5,945.65,496.94,940.94,530Z"/></svg>