<svg id="Layer_1" data-name="Layer 1" xmlns="http://www.w3.org/2000/svg" viewBox="0 0 2302.36 500"><defs><style>.cls-1{fill:#cdd2d9;}</style></defs><path class="cls-1" d="M205,55.55a83.34,83.34,0,0,1,83.34,83.33h0v27.78a27.78,27.78,0,0,1-27.78,27.78h0a27.78,27.78,0,0,1-27.78-27.78V138.88h0A27.78,27.78,0,0,0,205,111.1h0a27.78,27.78,0,0,0-27.78,27.78h0v27.78a27.78,27.78,0,0,1-27.78,27.78h0a27.78,27.78,0,0,1-27.78-27.78V138.88h0A83.33,83.33,0,0,1,205,55.55Zm194.45,0a83.33,83.33,0,0,0-83.33,83.33h0v27.78a27.77,27.77,0,0,0,27.77,27.78h0a27.78,27.78,0,0,0,27.78-27.78V138.88h0a27.78,27.78,0,0,1,27.78-27.78h0a27.78,27.78,0,0,1,27.78,27.78h0v27.78A27.78,27.78,0,0,0,455,194.44h0a27.78,27.78,0,0,0,27.78-27.78V138.88h0a83.33,83.33,0,0,0-83.34-83.33ZM425.59,245.9a166.71,166.71,0,0,1-165,143c-92.32,0-166.67-76-166.67-168.36V83.32A27.77,27.77,0,0,0,66.13,55.55h0A27.77,27.77,0,0,0,38.35,83.32v136.9c0,122.51,100.23,224.5,222.74,224.23,111.82-.24,204.25-83.08,219.52-190.75a27.73,27.73,0,0,0-27.54-31.48h0A27.7,27.7,0,0,0,425.59,245.9Z"/><path class="cls-1" d="M838.12,72.49q33.6,17,51.94,48.61T908.4,195q0,42.23-18.34,73.89T838.12,317.5q-33.63,17-78.62,16.95h-95v110H573.38V55.55H759.5Q804.5,55.55,838.12,72.49Zm-37.23,166.4q17-16.11,17-43.34t-17-43.33q-16.95-16.11-45.83-16.12H663.94V255h91.12Q783.94,255,800.89,238.89Z"/><path class="cls-1" d="M919.51,55.55h91.11V362.23h195.57v82.22H919.51Z"/><path class="cls-1" d="M1516.76,444.45l-28.89-70H1296.19l-28.89,70h-97.23l174.46-388.9h97.22l173.35,388.9Zm-123.9-301.68L1329,296.11h126.67Z"/><path class="cls-1" d="M1692.26,420q-45.42-24.42-70.13-68.53T1597.43,250q0-57.37,25.23-101.74a173.74,173.74,0,0,1,70.4-68.54q45.15-24.16,103.07-24.17,82.35,0,141.33,57.91l-53.66,53.66q-35.61-34-85.54-34-33.48,0-59.24,14.62a100.19,100.19,0,0,0-39.85,41.17q-14.09,26.58-14.08,61.1t14.08,61.1A100.13,100.13,0,0,0,1739,352.27q25.76,14.63,59.24,14.61a138.65,138.65,0,0,0,51-9.56,122.33,122.33,0,0,0,42.5-27.63l51,56.85q-60,57.91-145,57.91Q1737.67,444.45,1692.26,420Z"/><path class="cls-1" d="M2049.55,367.78H2264v76.67H1961.22V55.55H2257.9v76.11H2049.55v78.89h197.24v73.34H2049.55Z"/></svg>